<?xml version="1.0" encoding="iso-8859-1"?>
<!-- Uploaded to: SVG Repo, www.svgrepo.com, Generator: SVG Repo Mixer Tools -->
<svg version="1.1" id="Layer_1" xmlns="http://www.w3.org/2000/svg" xmlns:xlink="http://www.w3.org/1999/xlink" 
	 viewBox="0 0 393.568 393.568" xml:space="preserve">
<circle style="fill:#6EB1E1;" cx="196.784" cy="196.784" r="196.784"/>
<path style="fill:#646B79;" d="M155.927,118.562V82.812c0-2.909,2.327-4.978,4.978-4.978h100.848c2.909,0,4.978,2.327,4.978,4.978
	v35.749h20.945V82.812c0-14.416-11.507-25.923-25.923-25.923H160.905c-14.416,0-25.923,11.507-25.923,25.923v35.749H155.927z"/>
<path style="fill:#4F5565;" d="M317.026,284.315H105.891c-5.236,0-9.438-4.202-9.438-9.438V120.566c0-5.236,4.202-9.438,9.438-9.438
	h211.135c5.236,0,9.438,4.202,9.438,9.438v154.311C326.206,280.113,322.004,284.315,317.026,284.315z"/>
<g>
	<polygon style="fill:#646B79;" points="357.689,249.988 326.206,249.988 326.206,145.455 378.634,145.455 	"/>
	<rect x="14.933" y="131.556" style="fill:#646B79;" width="11.507" height="132.331"/>
</g>
<rect x="38.012" y="141.77" style="fill:#4F5565;" width="11.507" height="112.162"/>
<polygon style="fill:#414753;" points="49.519,253.931 96.97,235.83 96.97,159.547 49.519,141.77 "/>
<polygon style="fill:#393D47;" points="38.012,253.931 26.505,264.145 26.505,131.556 38.012,141.77 "/>
</svg>